<mxfile host="app.diagrams.net" modified="2023-06-20T10:33:35.453Z" agent="Mozilla/5.0 (Windows NT 10.0; Win64; x64) AppleWebKit/537.36 (KHTML, like Gecko) Chrome/114.0.0.0 Safari/537.36" etag="9v-tBzrJryj-CJ98_v_P" version="21.5.0" type="google">
  <diagram name="Página-1" id="t5d51C7CtFJHQe8yWbQm">
    <mxGraphModel grid="1" page="1" gridSize="10" guides="1" tooltips="1" connect="1" arrows="1" fold="1" pageScale="1" pageWidth="827" pageHeight="1169" math="0" shadow="0">
      <root>
        <mxCell id="0" />
        <mxCell id="1" parent="0" />
        <mxCell id="Y4gd42golcvi8SW3DdXY-11" style="edgeStyle=orthogonalEdgeStyle;rounded=0;orthogonalLoop=1;jettySize=auto;html=1;exitX=1;exitY=0.5;exitDx=0;exitDy=0;entryX=0.192;entryY=0.5;entryDx=0;entryDy=0;entryPerimeter=0;endArrow=none;endFill=0;" edge="1" parent="1" source="Y4gd42golcvi8SW3DdXY-1" target="Y4gd42golcvi8SW3DdXY-2">
          <mxGeometry relative="1" as="geometry" />
        </mxCell>
        <mxCell id="Y4gd42golcvi8SW3DdXY-1" value="" style="shape=image;verticalLabelPosition=bottom;labelBackgroundColor=default;verticalAlign=top;aspect=fixed;imageAspect=0;image=https://static-00.iconduck.com/assets.00/sonarqube-icon-512x125-4mf3yt3g.png;" vertex="1" parent="1">
          <mxGeometry x="-270" y="186.11" width="195.76" height="47.79" as="geometry" />
        </mxCell>
        <mxCell id="Y4gd42golcvi8SW3DdXY-2" value="" style="shape=image;verticalLabelPosition=bottom;labelBackgroundColor=default;verticalAlign=top;aspect=fixed;imageAspect=0;image=https://plmlab.math.cnrs.fr/uploads/-/system/project/avatar/4980/logo-kaniko.png;" vertex="1" parent="1">
          <mxGeometry x="80" y="132" width="156" height="156" as="geometry" />
        </mxCell>
        <mxCell id="Y4gd42golcvi8SW3DdXY-12" style="edgeStyle=orthogonalEdgeStyle;rounded=0;orthogonalLoop=1;jettySize=auto;html=1;exitX=0;exitY=0.5;exitDx=0;exitDy=0;entryX=0.769;entryY=0.5;entryDx=0;entryDy=0;entryPerimeter=0;endArrow=none;endFill=0;" edge="1" parent="1" source="Y4gd42golcvi8SW3DdXY-3" target="Y4gd42golcvi8SW3DdXY-2">
          <mxGeometry relative="1" as="geometry" />
        </mxCell>
        <mxCell id="Y4gd42golcvi8SW3DdXY-13" style="edgeStyle=orthogonalEdgeStyle;rounded=0;orthogonalLoop=1;jettySize=auto;html=1;exitX=1;exitY=0.5;exitDx=0;exitDy=0;entryX=0.278;entryY=0.5;entryDx=0;entryDy=0;entryPerimeter=0;endArrow=none;endFill=0;" edge="1" parent="1" source="Y4gd42golcvi8SW3DdXY-3" target="Y4gd42golcvi8SW3DdXY-4">
          <mxGeometry relative="1" as="geometry" />
        </mxCell>
        <mxCell id="Y4gd42golcvi8SW3DdXY-3" value="" style="shape=image;verticalLabelPosition=bottom;labelBackgroundColor=default;verticalAlign=top;aspect=fixed;imageAspect=0;image=https://static-00.iconduck.com/assets.00/trivy-icon-312x512-i437m5pr.png;" vertex="1" parent="1">
          <mxGeometry x="380" y="134.51999999999998" width="92" height="150.97" as="geometry" />
        </mxCell>
        <mxCell id="Y4gd42golcvi8SW3DdXY-4" value="" style="shape=image;verticalLabelPosition=bottom;labelBackgroundColor=default;verticalAlign=top;aspect=fixed;imageAspect=0;image=https://cdn-icons-png.flaticon.com/128/165/165776.png;" vertex="1" parent="1">
          <mxGeometry x="620" y="168" width="84" height="84" as="geometry" />
        </mxCell>
        <mxCell id="Y4gd42golcvi8SW3DdXY-5" value="&lt;font style=&quot;font-size: 36px;&quot;&gt;Pipeline GitLab&lt;/font&gt;" style="rounded=0;whiteSpace=wrap;html=1;" vertex="1" parent="1">
          <mxGeometry x="-310" y="500" width="1040" height="110" as="geometry" />
        </mxCell>
        <mxCell id="Y4gd42golcvi8SW3DdXY-17" style="edgeStyle=orthogonalEdgeStyle;rounded=0;orthogonalLoop=1;jettySize=auto;html=1;exitX=0.25;exitY=0;exitDx=0;exitDy=0;entryX=0.25;entryY=1;entryDx=0;entryDy=0;startArrow=classic;startFill=1;" edge="1" parent="1" source="Y4gd42golcvi8SW3DdXY-6" target="Y4gd42golcvi8SW3DdXY-5">
          <mxGeometry relative="1" as="geometry" />
        </mxCell>
        <mxCell id="Y4gd42golcvi8SW3DdXY-18" style="edgeStyle=orthogonalEdgeStyle;rounded=0;orthogonalLoop=1;jettySize=auto;html=1;exitX=0.75;exitY=0;exitDx=0;exitDy=0;entryX=0.75;entryY=1;entryDx=0;entryDy=0;startArrow=classic;startFill=1;" edge="1" parent="1" source="Y4gd42golcvi8SW3DdXY-6" target="Y4gd42golcvi8SW3DdXY-5">
          <mxGeometry relative="1" as="geometry" />
        </mxCell>
        <mxCell id="Y4gd42golcvi8SW3DdXY-22" style="edgeStyle=orthogonalEdgeStyle;rounded=0;orthogonalLoop=1;jettySize=auto;html=1;exitX=0.75;exitY=1;exitDx=0;exitDy=0;entryX=0.75;entryY=0;entryDx=0;entryDy=0;startArrow=classic;startFill=1;" edge="1" parent="1" source="Y4gd42golcvi8SW3DdXY-6" target="Y4gd42golcvi8SW3DdXY-7">
          <mxGeometry relative="1" as="geometry" />
        </mxCell>
        <mxCell id="Y4gd42golcvi8SW3DdXY-6" value="&lt;font style=&quot;font-size: 36px;&quot;&gt;GitLab CI Pipelines Exporter&lt;/font&gt;" style="rounded=0;whiteSpace=wrap;html=1;" vertex="1" parent="1">
          <mxGeometry x="-310" y="680" width="1040" height="110" as="geometry" />
        </mxCell>
        <mxCell id="Y4gd42golcvi8SW3DdXY-21" style="edgeStyle=orthogonalEdgeStyle;rounded=0;orthogonalLoop=1;jettySize=auto;html=1;exitX=0.25;exitY=0;exitDx=0;exitDy=0;entryX=0.25;entryY=1;entryDx=0;entryDy=0;startArrow=classic;startFill=1;" edge="1" parent="1" source="Y4gd42golcvi8SW3DdXY-7" target="Y4gd42golcvi8SW3DdXY-6">
          <mxGeometry relative="1" as="geometry" />
        </mxCell>
        <mxCell id="Y4gd42golcvi8SW3DdXY-23" style="edgeStyle=orthogonalEdgeStyle;rounded=0;orthogonalLoop=1;jettySize=auto;html=1;exitX=0.25;exitY=1;exitDx=0;exitDy=0;entryX=0.25;entryY=0;entryDx=0;entryDy=0;startArrow=classic;startFill=1;" edge="1" parent="1" source="Y4gd42golcvi8SW3DdXY-7" target="Y4gd42golcvi8SW3DdXY-8">
          <mxGeometry relative="1" as="geometry" />
        </mxCell>
        <mxCell id="Y4gd42golcvi8SW3DdXY-24" style="edgeStyle=orthogonalEdgeStyle;rounded=0;orthogonalLoop=1;jettySize=auto;html=1;exitX=0.75;exitY=1;exitDx=0;exitDy=0;entryX=0.75;entryY=0;entryDx=0;entryDy=0;startArrow=classic;startFill=1;" edge="1" parent="1" source="Y4gd42golcvi8SW3DdXY-7" target="Y4gd42golcvi8SW3DdXY-8">
          <mxGeometry relative="1" as="geometry" />
        </mxCell>
        <mxCell id="Y4gd42golcvi8SW3DdXY-7" value="&lt;font style=&quot;font-size: 36px;&quot;&gt;Prometheus&lt;/font&gt;" style="rounded=0;whiteSpace=wrap;html=1;" vertex="1" parent="1">
          <mxGeometry x="-310" y="870" width="1040" height="110" as="geometry" />
        </mxCell>
        <mxCell id="Y4gd42golcvi8SW3DdXY-8" value="&lt;font style=&quot;font-size: 36px;&quot;&gt;Grafana&lt;/font&gt;" style="rounded=0;whiteSpace=wrap;html=1;" vertex="1" parent="1">
          <mxGeometry x="-310" y="1059" width="1040" height="110" as="geometry" />
        </mxCell>
        <mxCell id="Y4gd42golcvi8SW3DdXY-9" value="" style="endArrow=none;html=1;rounded=0;exitX=0.082;exitY=0.018;exitDx=0;exitDy=0;strokeWidth=4;exitPerimeter=0;" edge="1" parent="1" source="Y4gd42golcvi8SW3DdXY-5">
          <mxGeometry width="50" height="50" relative="1" as="geometry">
            <mxPoint x="230" y="320" as="sourcePoint" />
            <mxPoint x="-310" y="100" as="targetPoint" />
          </mxGeometry>
        </mxCell>
        <mxCell id="Y4gd42golcvi8SW3DdXY-10" value="" style="endArrow=none;html=1;rounded=0;exitX=0.931;exitY=-0.009;exitDx=0;exitDy=0;strokeWidth=4;exitPerimeter=0;" edge="1" parent="1" source="Y4gd42golcvi8SW3DdXY-5">
          <mxGeometry width="50" height="50" relative="1" as="geometry">
            <mxPoint x="730" y="500" as="sourcePoint" />
            <mxPoint x="730" y="100" as="targetPoint" />
          </mxGeometry>
        </mxCell>
        <mxCell id="Y4gd42golcvi8SW3DdXY-14" value="" style="endArrow=none;html=1;rounded=0;exitX=0;exitY=0;exitDx=0;exitDy=0;dashed=1;dashPattern=12 12;" edge="1" parent="1">
          <mxGeometry width="50" height="50" relative="1" as="geometry">
            <mxPoint x="30" y="500" as="sourcePoint" />
            <mxPoint x="30" y="100" as="targetPoint" />
          </mxGeometry>
        </mxCell>
        <mxCell id="Y4gd42golcvi8SW3DdXY-15" value="" style="endArrow=none;html=1;rounded=0;exitX=0;exitY=0;exitDx=0;exitDy=0;dashed=1;dashPattern=12 12;" edge="1" parent="1">
          <mxGeometry width="50" height="50" relative="1" as="geometry">
            <mxPoint x="310" y="500" as="sourcePoint" />
            <mxPoint x="310" y="100" as="targetPoint" />
          </mxGeometry>
        </mxCell>
        <mxCell id="Y4gd42golcvi8SW3DdXY-16" value="" style="endArrow=none;html=1;rounded=0;exitX=0;exitY=0;exitDx=0;exitDy=0;dashed=1;dashPattern=12 12;" edge="1" parent="1">
          <mxGeometry width="50" height="50" relative="1" as="geometry">
            <mxPoint x="560" y="500" as="sourcePoint" />
            <mxPoint x="560" y="100" as="targetPoint" />
          </mxGeometry>
        </mxCell>
        <mxCell id="Y4gd42golcvi8SW3DdXY-19" value="&lt;font style=&quot;font-size: 18px;&quot;&gt;Métricas&lt;/font&gt;" style="text;html=1;align=center;verticalAlign=middle;resizable=0;points=[];autosize=1;strokeColor=none;fillColor=none;" vertex="1" parent="1">
          <mxGeometry x="-50" y="623" width="90" height="40" as="geometry" />
        </mxCell>
        <mxCell id="Y4gd42golcvi8SW3DdXY-20" value="&lt;font style=&quot;font-size: 18px;&quot;&gt;Métricas&lt;/font&gt;" style="text;html=1;align=center;verticalAlign=middle;resizable=0;points=[];autosize=1;strokeColor=none;fillColor=none;" vertex="1" parent="1">
          <mxGeometry x="380" y="623" width="90" height="40" as="geometry" />
        </mxCell>
        <mxCell id="Y4gd42golcvi8SW3DdXY-25" value="&lt;font style=&quot;font-size: 18px;&quot;&gt;Observabilidad&lt;/font&gt;" style="text;html=1;align=center;verticalAlign=middle;resizable=0;points=[];autosize=1;strokeColor=none;fillColor=none;" vertex="1" parent="1">
          <mxGeometry x="-50" y="1000" width="140" height="40" as="geometry" />
        </mxCell>
        <mxCell id="Y4gd42golcvi8SW3DdXY-26" value="&lt;font style=&quot;font-size: 18px;&quot;&gt;Observabilidad&lt;/font&gt;" style="text;html=1;align=center;verticalAlign=middle;resizable=0;points=[];autosize=1;strokeColor=none;fillColor=none;" vertex="1" parent="1">
          <mxGeometry x="330" y="1000" width="140" height="40" as="geometry" />
        </mxCell>
        <mxCell id="Y4gd42golcvi8SW3DdXY-27" value="&lt;font style=&quot;font-size: 18px;&quot;&gt;Métricas Analizadas&lt;/font&gt;" style="text;html=1;align=center;verticalAlign=middle;resizable=0;points=[];autosize=1;strokeColor=none;fillColor=none;" vertex="1" parent="1">
          <mxGeometry x="-50" y="810" width="180" height="40" as="geometry" />
        </mxCell>
        <mxCell id="Y4gd42golcvi8SW3DdXY-28" value="&lt;font style=&quot;font-size: 18px;&quot;&gt;Métricas Analizadas&lt;/font&gt;" style="text;html=1;align=center;verticalAlign=middle;resizable=0;points=[];autosize=1;strokeColor=none;fillColor=none;" vertex="1" parent="1">
          <mxGeometry x="290" y="810" width="180" height="40" as="geometry" />
        </mxCell>
      </root>
    </mxGraphModel>
  </diagram>
</mxfile>
